<?xml version="1.0" encoding="UTF-8"?>
<svg id="Capa_1" xmlns="http://www.w3.org/2000/svg" version="1.1" viewBox="0 0 189 89">
  <!-- Generator: Adobe Illustrator 30.2.1, SVG Export Plug-In . SVG Version: 2.1.1 Build 1)  -->
  <defs>
    <style>
      .st0 {
        fill: #da2136;
      }

      .st0, .st1 {
        fill-rule: evenodd;
      }

      .st1 {
        fill: #fff;
      }
    </style>
  </defs>
  <g id="Symbols">
    <g id="Design_x2F_Header">
      <g id="Header">
        <g id="Page-1">
          <polygon id="Fill-1" class="st0" points="0 88.23 54.87 88.23 54.87 0 0 0 0 88.23"/>
          <g id="Group-64">
            <path id="Fill-2" class="st1" d="M19.37,67.1c0,1.78,4.83,3.07,10.84,3.07s10.88-1.29,10.88-3.07-4.94-3.08-10.94-3.08-10.78,1.3-10.78,3.08M45.2,73.48h-28.15c-.59-.8-1.5-2.39-1.79-4.87-.42-3.6-.04-6.55.79-10.2.69-3.02,1.68-5.95,2.08-7.17.39-1.22,1.58-4.24,1.58-4.24,1.98-5.56,5.89-12.44,5.89-12.44v-7.27c-.55.68-4.89,8.51-8.41,16.05-3.76,8.05-5.25,16.73-5.25,16.73,0,0-.68,5.02-.58,6.34.1,1.32.3,3.71.73,5.07.28.86.58,1.58.77,2h-3.13s-2.63.25-2.63,2.88c0,2.29,2.47,2.63,2.47,2.63h35.88s2.42-.19,2.42-2.78-2.67-2.73-2.67-2.73M27.82,53.15c2.38-.89,4.11-.59,5.3-.59s3.56.74,3.91,1.17c.34.44.69.73.4,1.66-.3.92-1.15,1.07-1.15,1.07-.5.55-4.3.78-5.19.68-.54-.06-1.09.64-1.09,1.18s.5,1.01.94,1.02c5.1.1,6.38-.93,6.38-.93,0,0,2.13-.4,2.38-3.02.25-2.63-1.78-3.71-1.78-3.71V15.5h-4.06v-6.24s0-1.07-1.34-1.07-1.35,1.27-1.35,1.27v6.02h-2.21s-1.54.36-1.54,1.97,1.76,1.75,1.76,1.75h5.36s0,31.37,0,31.37h-.15c-5.35-.73-8.02.83-8.02.83-.39.29-.89.74-.49,1.42.54.93.89.73,1.92.34"/>
            <path id="Fill-4" class="st1" d="M70.87,44.36c-.63,1.51-.91,2.19-.95,2.29v.04h-2.36v-.04c.04-.1.35-.78,2.34-5.29l2.94-6.71h.31l2.9,6.72c1.93,4.5,2.22,5.17,2.27,5.28v.04h-2.57v-.04c-.03-.11-.3-.78-.91-2.29h-3.96ZM74.14,42.53v-.04c-.89-2.24-1.11-2.88-1.24-3.35h-.02c-.13.46-.38,1.12-1.29,3.35v.04s2.55,0,2.55,0Z"/>
            <path id="Fill-6" class="st1" d="M80.73,34.77h.28c3.79,6.43,4.21,7.17,4.66,8.09h.03c.44-.89.88-1.63,4.76-8.09h.29l.89,6.62c.59,4.49.71,5.18.72,5.28v.03h-2.34v-.03c-.01-.1-.12-.89-.44-3.6-.12-1.03-.21-1.94-.26-2.86h-.02c-.47,1.03-.85,1.72-1.31,2.56-.45.8-1.21,2.1-2.23,3.74h-.29c-1.03-1.67-1.81-2.97-2.26-3.79-.45-.84-.87-1.63-1.25-2.53h-.02c-.05.95-.15,1.87-.26,2.89-.31,2.7-.41,3.48-.42,3.59v.03h-2.24v-.03c.03-.1.13-.79.77-5.28l.95-6.62Z"/>
            <path id="Fill-8" class="st1" d="M93.95,39.87v-5h6.01v1.92h-3.72v2.95h3.36v1.91h-3.36v2.89c0,.06,0,.14.01.22h3.83v1.93h-6.13v-6.82Z"/>
            <path id="Fill-10" class="st1" d="M101.98,39.87v-4.97c.23-.02.58-.05.93-.06.33-.02.97-.03,1.32-.03.91,0,1.65.08,2.35.29.9.26,2.28,1.09,2.28,3.17,0,1.44-.77,2.35-1.29,2.73-.29.22-.63.43-.89.51v.04c.11.14.3.43,2.8,3.86.33.47.82,1.13.91,1.25v.03h-2.63c-.88-1.31-1.92-2.87-3.21-4.73h-.38v4.73h-2.18v-6.82ZM106.61,38.44c0-1.1-.75-1.72-1.88-1.72-.25,0-.44.02-.57.03v3.58c.1.01.26.01.42.01.42,0,.84-.12,1.13-.29.43-.22.9-.73.9-1.6v-.02Z"/>
            <polygon id="Fill-12" class="st1" points="113.62 41.39 113.62 46.66 113.62 46.69 112.5 46.69 111.31 46.69 111.31 46.65 111.31 41.39 111.31 39.88 111.31 34.93 111.31 34.87 112.46 34.87 113.62 34.87 113.62 34.92 113.62 39.88 113.62 41.39"/>
            <path id="Fill-14" class="st1" d="M124.09,36.97c-.19-.05-.39-.09-.64-.13-.34-.05-.76-.09-1.22-.09-2.76,0-4.49,1.57-4.49,4.02s1.7,4.07,4.24,4.07c.54,0,.98-.03,1.41-.1.24-.05.45-.09.7-.17h.03c.02.43.06,1.56.08,2-.23.07-.66.16-.99.22-.55.07-.96.09-1.45.09-3.62,0-6.48-2.32-6.48-6.13,0-3.51,2.61-6.04,6.91-6.04.45,0,.76.02,1.07.05.33.04.71.09.96.15-.02.62-.04,1.21-.08,2.05h-.05Z"/>
            <path id="Fill-16" class="st1" d="M128.14,44.36c-.62,1.51-.91,2.19-.95,2.29v.04h-2.36v-.04c.04-.1.35-.78,2.34-5.29l2.94-6.71h.32l2.9,6.72c1.93,4.5,2.22,5.17,2.27,5.28v.04h-2.57v-.04c-.03-.11-.31-.78-.92-2.29h-3.96ZM131.41,42.53v-.04c-.89-2.24-1.11-2.88-1.24-3.35h-.02c-.14.46-.38,1.12-1.29,3.35v.04s2.56,0,2.56,0Z"/>
            <path id="Fill-18" class="st1" d="M146.7,46.85h-.29c-2.71-2.62-4.32-4.2-5.37-5.25-.76-.74-1.28-1.24-2.15-2.2h-.03c.02.61.02,1.07.02,2.26v5.03h-2.13v-11.96h.29c2.82,2.75,4.47,4.35,5.5,5.41.67.67,1.28,1.27,2.01,2.05h.02c0-.71,0-1.18,0-2.55v-4.78h2.13v11.98Z"/>
            <path id="Fill-20" class="st1" d="M74.36,64.32c0,1.8-1.51,3.23-3.9,3.23-.74,0-1.64-.13-2.17-.35.03-.79.03-1.03.07-2.04h.03c.18.09.37.16.58.23.35.1.79.18,1.3.18.89,0,1.62-.48,1.62-1.36,0-.52-.29-.97-.88-1.45-.5-.41-.91-.76-1.29-1.13-.75-.74-1.34-1.58-1.34-2.81,0-1.71,1.22-3.33,3.9-3.33.56,0,1.19.07,1.57.19-.02.74-.04,1-.07,2.02h-.03c-.15-.06-.38-.12-.57-.16-.21-.04-.45-.07-.7-.07-.97,0-1.69.5-1.69,1.32,0,.49.19.81.52,1.17.34.36.86.75,1.49,1.34.94.86,1.55,1.69,1.55,3.03h0Z"/>
            <path id="Fill-22" class="st1" d="M88.01,61.41c0,3.44-2.62,6.15-6.24,6.15s-6.21-2.69-6.21-6.06,2.73-6.1,6.36-6.1,6.09,2.61,6.09,5.99v.02ZM85.65,61.46c0-2.23-1.62-3.98-3.83-3.98s-3.89,1.73-3.89,4,1.63,4,3.91,4,3.82-1.78,3.82-4.01v-.02Z"/>
            <path id="Fill-24" class="st1" d="M98.07,57.65c-.19-.05-.4-.09-.64-.13-.34-.05-.76-.09-1.22-.09-2.75,0-4.49,1.57-4.49,4.02s1.7,4.08,4.24,4.08c.54,0,.98-.03,1.41-.1.24-.04.46-.09.7-.17h.03c.01.44.06,1.57.07,2-.23.07-.67.16-.99.22-.55.07-.96.1-1.45.1-3.62,0-6.48-2.33-6.48-6.13,0-3.5,2.61-6.04,6.91-6.04.45,0,.76.02,1.07.05.33.04.71.09.96.15-.02.63-.03,1.22-.07,2.05h-.05Z"/>
            <polygon id="Fill-26" class="st1" points="102.4 62.07 102.4 67.34 102.4 67.38 101.3 67.38 100.1 67.38 100.1 67.33 100.1 62.07 100.1 60.55 100.1 55.61 100.1 55.55 101.25 55.55 102.4 55.55 102.4 55.59 102.4 60.55 102.4 62.07"/>
            <path id="Fill-28" class="st1" d="M104.75,60.55v-5h6.02v1.92h-3.72v2.95h3.35v1.91h-3.35v2.89c0,.07,0,.15,0,.23h3.83v1.93h-6.13v-6.82Z"/>
            <polygon id="Fill-30" class="st1" points="115.13 57.47 112.88 57.47 111.93 57.47 111.86 57.47 111.86 55.55 115.48 55.55 116.95 55.55 120.71 55.55 120.71 57.47 120.64 57.47 119.7 57.47 117.43 57.47 117.43 62.07 117.43 67.34 117.43 67.38 116.29 67.38 115.13 67.38 115.13 67.34 115.13 62.07 115.13 57.47"/>
            <path id="Fill-32" class="st1" d="M127.51,62.48v4.89h-2.3v-4.78l-1.08-1.88c-2.48-4.37-2.82-4.99-2.9-5.14v-.03h2.58v.03c.07.13.43.8,1.26,2.31.46.84.96,1.75,1.29,2.41h.04c.31-.67.78-1.5,1.27-2.37.85-1.55,1.23-2.26,1.28-2.35v-.03h2.46v.04c-.06.14-.4.74-2.89,5.14l-1,1.75Z"/>
            <polygon id="Fill-34" class="st1" points="142.49 57.46 140.78 57.46 138.86 57.46 138.86 60.72 140.89 60.72 142.15 60.72 142.21 60.72 142.21 61.65 142.21 62.64 142.14 62.64 140.92 62.64 138.86 62.64 138.86 63.01 138.86 67.32 138.86 67.37 137.73 67.37 136.56 67.37 136.56 67.3 136.56 62.07 136.56 60.55 136.56 55.66 136.56 55.55 139.67 55.55 142.59 55.55 142.59 57.46 142.49 57.46"/>
            <path id="Fill-36" class="st1" d="M156.26,61.41c0,3.44-2.62,6.15-6.24,6.15s-6.21-2.69-6.21-6.06,2.72-6.1,6.36-6.1,6.09,2.61,6.09,5.99v.02ZM153.89,61.46c0-2.23-1.61-3.98-3.83-3.98s-3.88,1.73-3.88,4,1.62,4,3.9,4,3.81-1.78,3.81-4.01v-.02Z"/>
            <path id="Fill-38" class="st1" d="M157.88,60.55v-4.96c.23-.02.59-.05.94-.06.33-.01.97-.03,1.32-.03.9,0,1.65.08,2.35.29.89.26,2.27,1.1,2.27,3.17,0,1.44-.76,2.34-1.29,2.72-.29.23-.63.44-.89.52v.03c.11.15.3.43,2.79,3.86.34.47.82,1.14.91,1.25v.03h-2.63c-.88-1.31-1.92-2.87-3.21-4.73h-.37v4.73h-2.19v-6.82ZM162.52,59.12c0-1.1-.75-1.72-1.88-1.72-.25,0-.44.02-.57.03v3.58c.1.02.26.02.41.02.43,0,.84-.12,1.14-.3.43-.22.9-.73.9-1.6h0Z"/>
            <path id="Fill-40" class="st1" d="M69.79,76.12h.27c3.79,6.43,4.21,7.17,4.67,8.09h.02c.44-.89.87-1.63,4.76-8.09h.29l.89,6.62c.6,4.49.71,5.18.72,5.28v.03h-2.34v-.03c-.02-.1-.12-.89-.45-3.6-.11-1.03-.21-1.94-.25-2.86h-.02c-.46,1.02-.85,1.72-1.31,2.56-.45.81-1.21,2.1-2.23,3.74h-.29c-1.04-1.67-1.8-2.97-2.26-3.79-.44-.83-.87-1.63-1.24-2.52h-.03c-.05.94-.14,1.87-.26,2.89-.31,2.7-.41,3.48-.42,3.59v.03h-2.24v-.03c.03-.11.13-.79.77-5.28l.95-6.62Z"/>
            <polygon id="Fill-42" class="st1" points="84.15 76.23 83.01 76.23 83.01 76.29 83.01 81.23 83.01 82.74 83.01 88.01 83.01 88.05 84.2 88.05 85.31 88.05 85.31 88.02 85.31 82.74 85.31 81.23 85.31 76.27 85.31 76.23 84.15 76.23"/>
            <path id="Fill-44" class="st1" d="M95.78,78.33c-.19-.05-.39-.09-.64-.13-.34-.06-.75-.1-1.22-.1-2.76,0-4.49,1.57-4.49,4.02s1.7,4.07,4.24,4.07c.54,0,.98-.03,1.41-.09.24-.05.45-.09.7-.17h.03c.01.43.06,1.56.07,2-.24.07-.66.16-.99.21-.55.08-.96.1-1.45.1-3.63,0-6.48-2.32-6.48-6.12,0-3.51,2.61-6.04,6.9-6.04.46,0,.77.02,1.09.05.32.03.7.09.96.15-.03.62-.04,1.22-.08,2.05h-.05Z"/>
            <path id="Fill-46" class="st1" d="M97.81,81.23v-4.96c.23-.02.59-.05.94-.06.34-.02.97-.03,1.32-.03.9,0,1.66.08,2.35.29.9.25,2.28,1.09,2.28,3.17,0,1.44-.77,2.34-1.3,2.73-.29.22-.63.43-.88.51v.04c.11.14.3.43,2.79,3.86.34.46.82,1.14.9,1.25v.03h-2.62c-.88-1.3-1.93-2.87-3.21-4.73h-.38v4.73h-2.18v-6.82ZM102.46,79.8c0-1.1-.75-1.72-1.88-1.72-.25,0-.45.02-.58.03v3.58c.1.02.26.02.41.02.42,0,.84-.12,1.14-.3.43-.22.91-.73.91-1.6h0Z"/>
            <path id="Fill-48" class="st1" d="M118.75,82.08c0,3.44-2.62,6.15-6.24,6.15s-6.21-2.69-6.21-6.06,2.72-6.1,6.36-6.1,6.09,2.61,6.09,5.99v.02ZM116.39,82.15c0-2.23-1.62-3.98-3.83-3.98s-3.89,1.73-3.89,4,1.63,4,3.91,4,3.81-1.77,3.81-4.01v-.02Z"/>
            <path id="Fill-50" class="st1" d="M127.52,84.72c0,1.21-.71,2.19-1.62,2.71-.76.45-1.73.65-3.49.65-.41,0-.72,0-1.16-.03-.16,0-.48-.04-.82-.05v-11.72c.21-.02.53-.04.85-.05.42-.03,1.08-.03,1.57-.03.7,0,1.48.1,2.06.29.69.22,2.11.9,2.11,2.86,0,1.17-.72,2.2-1.86,2.52v.03c1.24.23,2.36,1.26,2.36,2.81v.02ZM124.79,79.54c0-.95-.69-1.44-1.62-1.44-.19,0-.46,0-.6.03v2.91c.14.02.3.02.41.02.26,0,.51-.03.8-.12.49-.15,1.01-.61,1.01-1.38h0ZM125.18,84.46c0-.78-.54-1.28-1.12-1.47-.28-.08-.65-.14-.94-.14-.12,0-.4.01-.55.01v3.23s0,.03.01.03c.17.02.37.02.56.02.33,0,.74-.06,1.06-.21.4-.17.98-.63.98-1.46h0Z"/>
            <polygon id="Fill-52" class="st1" points="130.5 76.23 129.35 76.23 129.35 76.29 129.35 81.23 129.35 82.74 129.35 88.01 129.35 88.05 130.54 88.05 131.65 88.05 131.65 88.02 131.65 82.74 131.65 81.23 131.65 76.27 131.65 76.23 130.5 76.23"/>
            <path id="Fill-54" class="st1" d="M145.78,82.08c0,3.44-2.62,6.15-6.25,6.15s-6.21-2.69-6.21-6.06,2.72-6.1,6.35-6.1,6.1,2.61,6.1,5.99v.02ZM143.41,82.15c0-2.23-1.62-3.98-3.83-3.98s-3.89,1.73-3.89,4,1.63,4,3.9,4,3.82-1.77,3.82-4.01v-.02Z"/>
            <path id="Fill-56" class="st1" d="M147.44,81.23v-5h2.3v9.81c0,.07,0,.08.06.08h3.72v1.93h-6.08v-6.82Z"/>
            <path id="Fill-58" class="st1" d="M166.32,82.08c0,3.44-2.63,6.15-6.24,6.15s-6.21-2.69-6.21-6.06,2.72-6.1,6.36-6.1,6.09,2.61,6.09,5.99v.02ZM163.95,82.15c0-2.23-1.61-3.98-3.83-3.98s-3.88,1.73-3.88,4,1.62,4,3.9,4,3.81-1.77,3.81-4.01v-.02Z"/>
            <path id="Fill-60" class="st1" d="M174.05,88.23c-3.63,0-6.51-2.33-6.51-6.11s2.81-6.08,6.9-6.08c.62,0,1.1.03,1.57.09.42.05.81.12,1.21.21-.03.7-.05,1.19-.08,2.06h-.04c-.17-.06-.44-.13-.75-.2-.45-.08-1.03-.16-1.71-.16-2.71,0-4.61,1.52-4.61,4.07s1.62,4.09,3.98,4.09c.35,0,.71-.02,1.04-.09v-3.59h2.29v5.23c-.81.3-1.83.48-3.27.48"/>
            <path id="Fill-62" class="st1" d="M184.38,83.16v4.89h-2.3v-4.78l-1.07-1.88c-2.49-4.37-2.83-4.99-2.9-5.13v-.03h2.58v.03c.07.13.43.8,1.25,2.31.46.85.97,1.75,1.29,2.41h.03c.32-.67.79-1.5,1.28-2.37.85-1.55,1.23-2.26,1.28-2.35v-.03h2.45v.04c-.06.14-.39.73-2.89,5.14l-1,1.75Z"/>
          </g>
        </g>
      </g>
    </g>
  </g>
</svg>