<?xml version="1.0" encoding="utf-8"?>
<!-- Generator: Adobe Illustrator 30.2.1, SVG Export Plug-In . SVG Version: 9.03 Build 0)  -->
<svg version="1.0" id="Capa_1" xmlns="http://www.w3.org/2000/svg" xmlns:xlink="http://www.w3.org/1999/xlink" x="0px" y="0px"
	 viewBox="0 0 1841.5 649.67" style="enable-background:new 0 0 1841.5 649.67;" xml:space="preserve">
<style type="text/css">
	.st0{fill:#F65E60;}
	.st1{fill:#179FC9;}
	.st2{fill:#8EC958;}
	.st3{fill:#FEE475;}
	.st4{fill:#C21B2B;}
	.st5{fill:#55B148;}
	.st6{fill:#FECA2E;}
	.st7{fill:#E52833;}
	.st8{fill:#51B446;}
	.st9{fill:#FEC829;}
	.st10{fill:#E52D36;}
	.st11{fill:#077847;}
	.st12{fill:#E62D36;}
	.st13{fill:#A2121E;}
	.st14{fill:#077846;}
	.st15{fill:#5FB84B;}
	.st16{fill:#A2111D;}
	.st17{fill:#0FA0D2;}
	.st18{fill:#F56063;}
	.st19{fill:#3A2E6A;}
	.st20{fill:#F55F63;}
	.st21{fill:#F89A2A;}
	.st22{fill:#E72C36;}
	.st23{fill:#F8992A;}
	.st24{fill:#B8182A;}
	.st25{fill:#F89B29;}
	.st26{fill:#F35E5C;}
	.st27{fill:#AC1628;}
	.st28{fill:#0E9CD1;}
	.st29{fill:#0D9DD0;}
	.st30{fill:#FECD2E;}
	.st31{fill:#FECF2F;}
	.st32{fill:#EA2B36;}
	.st33{fill:#E92936;}
	.st34{fill:#254916;}
	.st35{fill:#306F25;}
	.st36{fill:#2E5F24;}
	.st37{fill:#B6132A;}
	.st38{fill:#FDCA38;}
	.st39{fill:#1698CC;}
	.st40{fill:#094A62;}
	.st41{fill:#0A5567;}
	.st42{fill:#3C852E;}
	.st43{fill:#2A511E;}
	.st44{fill:#3D7330;}
</style>
<path class="st0" d="M505.32,346.68h7.36l11.38,2.01l10.7,4.01l7.35,4.68l8.03,6.69l6.02,7.36l4.68,7.35l7.36-0.67l9.36-2.68
	l11.37-5.35l3.34-2.01l2.68,0.67l0.67,4.01l-6.02,4.69l-10.7,4.68l-9.37,2.67l-5.35,1.34l4.02,11.38h10.7l12.71-2.68l8.03-2.68
	l3.34,0.67l0.67,3.34l-2.01,2.01l-8.03,3.34l-8.7,2.01l-6.02,0.67h-8.7l2.68,14.05l11.37,1.34l11.37-0.67l6.02-1.34l4.68,0.67
	l0.67,3.34l-2.01,2.01l-6.69,2.01l-6.02,0.67h-12.04l-7.35-1.33l0.67,16.72l10.7,2.01h21.41l0.67,4.68l-4.01,2.01l-4.68,0.67h-11.38
	l-10.7-2.01l-2.01-0.67l-1.34,8.7l-1.34,6.69l6.02,1.34l10.7,2.68l11.38,0.67l6.02,0.67l0.67,4.02l-2.01,1.34l-3.34,0.67h-10.7
	l-12.04-2.67l-8.03-2.68l-0.67,6.02l-2.68,8.7v1.33l13.38,4.68l9.36,2.01l8.7,0.67l1.34,3.34l-2.01,2.01l-1.34,0.67h-6.69
	l-10.7-2.01l-14.72-5.35l-0.67,3.35l-4.68,11.37l4.02,1.34l10.03,4.68l14.72,4.02l1.34,0.67v3.34l-1.34,1.34h-6.02l-10.04-2.68
	l-10.7-4.68l-3.34-2.01h-1.34l-6.02,10.7l-1.34,2.68l4.02,1.34l12.71,6.69l12.71,4.68v3.34l-1.34,1.34h-4.68l-10.04-3.34L550.13,534
	l-4.02-2.68v-1.34l-2.68,2.68l-6.02,8.7l1.34,2.67l9.36,6.02l7.36,4.02l8.03,4.02l0.67,0.67v4.02l-0.67,0.67h-4.01l-12.71-6.02
	l-8.7-6.02l-4.02-3.34l-2.68,0.67l-7.35,8.03l4.01,5.35l9.36,8.7l10.7,8.03v3.34l-2.01,1.34l-3.34-0.67l-7.36-5.35l-6.69-6.02
	l-4.68-4.01l-4.68-5.35l-4.68,4.02l-5.35,4.68l1.34,3.34l6.69,8.7l4.68,5.35v1.34l2.01,0.67l3.34,3.34l3.34,4.01l-0.67,3.35
	l-2.68,0.67l-4.02-2.68l-4.68-4.01l-4.68-5.35l-7.36-9.36l-3.34-4.68l-7.36,4.68l-4.68,3.34h-1.34l4.02,6.02l8.7,13.38l5.35,9.36
	v4.02l-2.01,1.34l-2.68-0.67l-3.34-5.35l-6.69-11.38l-4.69-6.69l-3.34-4.68l-3.34,0.67l-10.03,6.02l5.35,12.71l3.34,10.7l0.67,3.35
	v6.69l-0.67,0.67h-4.01l-1.34-2.01l-2.01-10.7l-4.01-10.7l-3.34-7.36l-3.35,0.67l-10.7,4.68l-0.67,2.01l2.68,10.04l1.34,8.69v13.38
	l-1.34,2.01h-3.34l-1.34-2.67l-0.67-12.04l-2.68-14.05l-1.33-4.02l-13.38,4.02h-1.34l1.34,9.36v18.06l-1.34,7.35l-0.67,0.67h-4.02
	l-0.67-0.67v-26.09l-0.67-6.02l-8.03,1.34l-9.36,2.01h-2.01v16.05l-1.34,10.7l-2.01,6.02l-2.01,1.34l-3.34-0.67v-6.02l2.01-12.04
	l0.67-14.72l-2.01,0.67h-16.72l-0.67,7.36L376.22,637l-4.02,9.36l-4.01,5.35l-0.67,0.67h-4.01l-0.67-0.67l0.67-4.68l4.01-6.69
	l4.02-12.04l2.01-9.37l-11.37-1.33l-7.36-2.01l-1.34,6.02l-4.68,10.7l-6.69,10.04l-3.35,4.01l-4.01,0.67l-1.34-1.34l0.67-4.68
	l4.68-5.35l4.69-7.35l6.02-14.72l-6.02-2.01l-8.7-4.68l-8.7-7.36l-6.02-7.36l-4.01-6.69l-3.35-10.04l-1.33-8.7v-11.37l2.01-10.7
	l3.34-9.36l6.02-9.36l6.02-6.69l8.03-6.02l-0.67-4.01l-5.35-8.7l-5.35-6.69l-4.02-3.35v-3.34l1.34-1.34l4.02,0.67l7.35,7.36
	l4.68,6.69l4.02,8.03l4.02-0.67l5.35-2.01l-0.67-4.69l-4.68-10.7l-5.35-8.03l0.67-4.01l2.67-0.67l4.02,3.34l5.35,8.7l4.01,10.7
	l0.67,2.68l9.36-0.67l-3.34-16.05l-2.01-6.69l0.67-4.01l0.67-0.67h3.34l3.34,7.36l2.01,8.7l1.34,10.7l12.71,0.67l-0.67-8.03
	l-2.68-10.03l-2.68-6.69l0.67-3.34l3.35-1.34l2.01,2.01l4.02,10.04l2.67,13.38v4.68h12.71l-2.01-9.36l-3.34-8.7l-4.01-8.7l1.33-2.67
	l3.35-0.67l2.67,3.34l5.35,11.38l2.01,6.69l0.67,7.36l10.7-3.34l8.03-4.02v-2.68l-6.69-5.35l-3.34-3.34l-6.69-7.36l-2.68-4.02
	l0.67-3.34l4.01-0.67l2.68,2.67l4.68,6.02l7.36,7.36l6.69,4.68l4.68-4.01l4.68-6.69l4.68-10.7l-8.69-0.67l-12.71-3.34l-10.7-4.69
	l-0.67-0.67v-4.02l0.67-0.67h4.68l8.03,3.34l13.38,3.34l7.36,0.67l0.67-9.36v-8.03l-11.38,2.01h-12.71l-10.04-2.01l-2.67-1.33
	l-0.67-2.68l2.01-2.68h4.68l6.69,1.34h14.05l9.36-1.34l-1.34-8.7l-0.67-4.01l-9.36,1.34h-18.06l-7.36-1.34l-2.01-2.01l0.67-3.34
	l0.67-0.67h5.35l4.02,0.67h14.72l8.03-1.34h3.34v-14.71l2.01-11.38l4.02-10.7l4.02-7.36l5.35-6.69l6.69-6.69l9.37-6.02l7.35-3.34
	l9.36-2.68L505.32,346.68z"/>
<path class="st1" d="M533.42,44.32l4.68,0.67l3.34,3.34l0.68,0.67v4.68l-4.68,18.06l0.67,2.67l12.71,9.36l12.04,9.37l12.71,9.36
	l12.71,9.36l12.71,9.36l6.02,4.68l3.34-0.67l8.7-5.35h1.34l-2.68-2.68L605,107.84l-12.04-8.69l-11.38-8.7l-6.02-4.68l-0.67-4.68
	l2.68-1.34l3.34,0.67l8.03,6.02l12.04,8.7l11.37,8.03l11.38,8.7l3.34,2.01l4.68-3.34l2.01-0.67h4.68l3.35,2.01l1.34,2.01v6.02
	l-4.02,6.69l-6.69,7.36l-9.37,6.69l-9.36,5.35l-10.7,4.68l-15.39,4.68l-20.73,4.02l-20.07,2.01h-6.69l2.01,14.72l0.67,8.03v28.09
	l-2.01,14.72l-4.02,15.39l-6.02,14.05l-5.35,9.36l-6.02,8.03l-7.36,8.03l-8.03,7.36l-10.04,6.69l-12.71,6.69l-12.71,4.68
	l-14.71,3.34l-15.39,2.01l-9.36,0.67l-20.74,0.67v38.8l-2.01,14.72l-4.02,16.72l-4.68,12.71l-6.69,14.05l-6.69,10.7l-6.02,8.03
	l-8.03,9.36l-6.02,6.02l-7.36,6.02l-10.7,8.03l-14.05,8.03l-10.7,5.35l-7.36,3.34l-18.06,6.02l-18.06,4.01l-17.4,2.01l-12.71,0.67
	v16.06l-1.34,20.07l-3.34,20.07l-4.02,14.72l-4.01,10.7l-8.03,15.39l-6.69,9.36l-8.03,9.36l-8.03,7.36l-7.36,5.35l-9.36,4.68h-5.35
	l-3.34-2.01l-1.34-2.68l0.67-6.02l4.02-4.68l4.68-4.01h1.34v-2.01l-2.68-1.34l-7.36-6.69l-7.35-6.02l-8.03-7.36l-5.35-4.68
	l-9.36-8.03l-10.04-8.7l-8.69-7.36l-8.7-7.35l-1.34-0.67v-1.34l-2.68-0.67l-5.35,6.69l-3.34,2.68l-2.01,0.67h-4.68l-4.01-3.34
	l-0.67-1.34v-6.69l4.68-9.36l6.69-8.7l7.35-8.03l7.36-7.36l7.36-6.02l10.04-6.69l10.7-6.02l10.7-4.68l14.05-4.68l17.39-3.34
	l15.39-2.01l20.07-1.34l0.67-22.74l2.01-18.73l3.34-17.39l5.35-18.06l6.02-14.05l7.35-14.05l5.35-8.03l6.69-8.69l8.03-8.7l3.34-4.02
	l5.35-4.68l9.36-7.35l10.04-6.69l10.7-6.02l13.38-5.35l13.38-4.02l12.71-2.68l16.72-2.01l10.03-0.67h10.7l-0.67-2.01l-0.67-9.36
	v-26.09l2.01-17.39l3.34-15.39l4.68-13.38l5.35-10.7l6.02-10.04l8.7-10.7l9.36-9.36l8.03-6.02l8.7-5.35l9.36-4.68l14.05-4.68
	l12.04-2.68l14.72-2.01l18.73-1.34h6.69l-2.68-17.4l-0.67-8.69V87.8l2.68-17.39l2.68-10.04l4.02-8.7l2.67-4.01l3.34-2.68
	L533.42,44.32z M535.43,82.45l-0.67,1.33l-0.67,7.36v11.38l12.04,9.36l9.36,6.69l12.04,9.36l10.04,7.36l2.67,2.01l5.35-0.67
	l14.05-4.68l0.67-2.01l-12.71-8.7l-8.69-6.69l-14.05-10.7l-7.35-5.35l-10.7-8.03l-8.03-6.02L535.43,82.45z M534.09,111.21v8.7
	l2.68,24.08h7.36l16.72-2.01l9.36-2.01v-1.34l-12.71-9.36l-8.7-6.69l-10.7-8.03L534.09,111.21z M517.37,162.72l-18.06,2.01v1.34
	l3.35,1.34v1.34l10.7,8.03l8.69,6.69h1.34v1.34l1.34-0.67l-2.01-17.4l-0.67-4.02L517.37,162.72L517.37,162.72z M486.6,166.74
	l-16.72,4.01l0.67,2.01l8.69,6.69l8.7,6.69l10.04,7.36l8.69,6.69l7.36,6.02l6.69,5.35l2.68,1.34l1.34-8.03v-10.7l-12.71-9.36
	l-18.73-14.72l-4.69-3.34h-2.01V166.74z M459.17,174.1l-12.71,6.69v2.01l8.7,6.69l10.7,8.69l8.69,6.69l12.04,9.36l9.36,7.36
	l9.36,7.35l7.36,6.02l3.34,2.68l2.01-0.67l3.34-11.38l0.67-5.35l-7.35-5.35l-10.7-8.03l-9.37-7.36l-21.41-16.05l-12.04-9.36h-1.99
	L459.17,174.1L459.17,174.1z M439.1,186.13l-8.03,8.03l-0.67,2.01l10.7,8.7l9.37,7.35l9.36,7.36l11.37,9.36l11.38,8.7l9.36,8.03
	l8.69,6.69l6.02,4.68h1.34l6.02-10.04l-0.67-3.34l-8.03-6.02l-12.04-9.36l-11.38-8.7l-10.03-8.03l-11.38-8.7l-8.7-7.35l-6.02-4.69
	l-6.02-4.68L439.1,186.13L439.1,186.13z M425.72,202.19l-5.35,7.36l-4.02,8.69l4.68,2.68l8.03,6.69l9.36,7.35l8.03,6.69l10.7,8.03
	l8.7,7.36l9.36,7.36l11.37,9.36l1.34,1.34l3.34-0.67l8.03-6.69l3.35-4.68l-5.35-4.68l-10.7-8.03l-8.7-7.35l-11.37-8.7l-10.7-8.7
	l-10.7-8.69l-10.7-8.7l-7.36-6.02L425.72,202.19L425.72,202.19z M413.01,224.93l-3.34,11.37l0.67,2.68l6.02,5.35l9.36,7.36l8.7,7.36
	l9.36,7.36l10.7,8.7l9.36,7.35l5.35,4.02l4.01-1.34l8.7-4.68l-1.34-2.68l-9.36-7.35l-18.73-14.72l-8.7-7.36l-9.36-7.36l-8.7-7.36
	l-7.35-6.02l-3.35-2.68H413.01z M407.66,246.34l-1.34,10.03v10.04l9.36,8.03l9.36,7.36l10.03,8.03l4.69,3.34l9.36-1.33l10.03-2.01
	l0.67-2.01l-8.03-6.02l-9.36-7.36l-10.7-8.7l-7.36-6.02l-10.7-8.7l-5.35-4.68L407.66,246.34L407.66,246.34z M406.32,276.44v19.4
	h12.04l10.03-1.34l-2.68-2.67l-7.35-6.02l-8.7-7.36L406.32,276.44z M379.56,314.57l-14.71,1.34l-4.02,0.67v1.34l9.36,7.35l8.7,7.36
	l7.36,6.02l2.01,2.01h2.01v-18.73l-0.67-7.36H379.56z M348.79,318.59l-16.72,4.68l-3.34,1.34l1.34,2.68l7.36,6.02l9.36,8.03
	l7.36,6.02l7.35,6.02l8.7,7.36l7.36,6.02l6.69,6.02h1.34l2.01-8.03l1.34-9.36v-5.35h-1.34v-1.34l-9.36-7.36l-9.36-8.03l-7.36-6.02
	l-9.36-8.03L348.79,318.59z M320.03,328.62l-10.7,6.02l-8.03,6.02l-4.02,3.35l1.34,2.67l8.7,7.36l9.36,8.03l9.36,8.03l9.36,8.03
	l6.69,6.02l7.35,6.02l8.03,7.36l7.36,6.02l4.68,4.01h1.33l6.02-10.7l5.35-12.71l0.67-3.34l-8.03-7.36l-7.36-6.02l-8.69-7.36
	l-2.68-2.01h-1.34v-1.34l-7.36-5.35l-7.36-6.69l-6.69-5.35l-6.65-6.03l-6.02-4.68L320.03,328.62L320.03,328.62z M289.93,350.03
	l-9.37,10.03l-7.35,10.04v2.01l9.36,7.36l6.69,6.02l7.36,6.02l7.36,6.69l7.36,6.02l9.36,8.7l7.35,6.02l8.03,7.35l7.36,6.02
	l2.67,2.68l2.68-1.34l11.37-11.37l5.35-6.69v-2.01l-7.36-6.02l-10.03-8.69l-9.37-8.03l-6.69-6.02l-7.36-6.02l-8.69-8.03l-7.36-6.02
	l-9.36-8.03l-8.03-6.69H289.93z M268.52,377.46l-4.02,6.69l-5.35,10.7l-4.01,10.03l0.67,2.68l9.36,8.03l10.04,8.7l9.36,8.03
	l7.36,6.02l6.69,6.02l7.36,6.02l6.02,5.35l8.03-3.34l12.71-7.36l6.69-4.68l-1.34-2.68l-10.04-8.7l-9.36-8.03l-8.69-8.03l-7.36-6.02
	l-8.03-7.36l-5.35-4.68l-9.36-8.03l-6.69-6.02L268.52,377.46z M252.46,414.91l-2.68,13.38l-0.67,9.36l18.73,16.05l8.7,8.03
	l4.01,3.34l5.35-0.67l14.05-4.01l3.34-1.34l-4.01-4.68l-6.69-6.02L285.9,443l-28.09-24.08l-4.02-4.02L252.46,414.91L252.46,414.91
	L252.46,414.91z M248.45,447.69l-0.67,2.01l-0.67,19.4l0.67,0.67l10.7-0.67l12.71-2.01l-1.34-2.68l-6.02-4.68l-9.36-8.03l-5.35-4.02
	L248.45,447.69L248.45,447.69z M220.36,489.84l-18.73,2.01l-3.34,0.67l3.34,3.34l10.03,8.7l10.04,8.69l3.34,3.35l2.68,1.33
	l0.67-6.69v-21.41h-8.03L220.36,489.84L220.36,489.84z M188.25,493.85l-18.73,5.35l-6.69,2.68l0.67,2.01l7.36,6.02l4.68,4.68
	l7.36,6.02l9.36,8.7l7.35,6.02l8.7,8.03l8.7,7.36l3.34,2.68h1.34l2.68-8.7l2.01-10.7v-7.36l-7.36-6.69l-7.36-6.02l-10.7-10.04
	l-5.35-4.68l-6.02-5.35h-1.34L188.25,493.85L188.25,493.85z M154.8,505.89l-11.37,6.69l-6.02,4.68l1.34,3.34l7.35,6.02l7.36,6.69
	l7.36,6.02l7.36,6.69l7.36,6.02l6.69,6.02l7.36,6.02l6.69,5.35l7.36,6.02l4.02,3.34l2.67-1.34l6.02-10.7l2.01-4.01l-0.67-2.68
	l-6.69-6.02l-7.36-6.02l-9.36-8.03l-7.36-6.02l-9.36-8.7l-5.35-4.68l-10.04-9.36l-5.35-4.68L154.8,505.89z M130.71,523.95
	l-3.34,3.35l-4.01,4.01v1.34h-1.34l1.34,2.68l10.03,8.69l7.36,6.02l6.69,6.02l7.36,6.02l7.36,6.69l7.36,6.02l7.36,6.69l7.35,6.02
	l9.37,8.7h1.33l4.68-5.35l4.02-4.68l-0.67-2.68l-7.36-5.35l-10.7-8.7l-9.36-8.03l-7.36-6.69l-6.69-5.35l-10.04-8.7l-9.36-8.03
	l-6.69-6.02l-3.34-2.68L130.71,523.95L130.71,523.95z"/>
<path class="st2" d="M215.01,28.93l3.34,0.67l1.34,2.68l-3.35,3.34l-7.35,4.68l-6.02,6.02l-5.35,8.03l-3.34,10.04l-1.34,6.02
	l8.03-2.01l10.7-1.33h6.69l0.67-5.35l4.68-10.7l6.02-8.03l6.02-5.35l6.02-4.01l5.35-2.01h4.68l1.33,1.34l-0.67,3.34l-1.34,1.34
	l-6.69,2.01l-8.03,6.02l-5.35,6.02l-5.35,10.7l-0.67,4.02h20.07l2.68-6.69l6.02-8.7l6.02-6.02l9.36-6.02l7.36-2.68h6.02l1.34,1.34
	l-0.67,3.34l-4.68,2.01l-8.7,3.34l-7.35,5.35l-5.35,5.35l-6.02,10.7l9.36,0.67l11.38,2.01l2.67,0.67l0.67-2.68l4.68-7.35l6.02-6.69
	l8.03-6.02l8.03-3.34l4.02-1.34h5.35l2.01,1.34l-0.68,4l-11.37,3.34l-7.36,4.02l-8.03,7.35l-5.35,7.36v1.34l16.72,4.02h3.35
	l6.02-7.36l6.69-6.02l9.36-5.35l6.69-2.67l6.02-1.34h4.02l1.34,0.67l0.67,2.68l-0.67,2.01l-14.05,4l-9.37,5.35l-6.69,6.02
	l-3.34,3.35l-1.34,2.01l7.36,2.01l9.36,4.02l4.02-0.67l3.34-4.01l7.36-5.35l6.69-4.01l7.36-2.68l7.36-1.34h5.35l2.01,1.34v3.34
	l-2.01,1.34l-10.7,2.01l-8.7,3.34l-7.35,4.68l-5.35,4.69h-1.34v1.33l4.02,1.34l12.04,6.69h2.67l5.35-4.02l10.7-5.35l8.7-2.01h9.36
	l8.03,2.01l1.34,1.33l-0.67,3.35l-3.34,0.67l-5.35-0.67h-7.36l-8.03,2.01l-9.36,4.02l-4.68,3.34l3.34,3.34l7.36,6.02l6.02,6.02v1.34
	l11.38-4.02l5.35-1.34h8.7l8.7,2.01l8.03,4.02l1.34,1.34l-0.67,3.34l-0.67,0.67l-4.68-0.67l-9.36-3.34h-14.08l-8.03,2.68h-1.33
	l6.02,9.36l2.01,4.68l11.37,0.67l8.03,2.01l9.37,4.68l6.69,5.35l0.67,3.34l-2.01,2.01l-4.68-2.01l-6.69-4.68l-8.03-3.34L386.27,144
	l2.01,10.7v12.71l-2.01,9.36l-3.35,8.7l-6.69,10.04l-4.02,4.68l-9.36,7.35l-10.03,5.35l-9.36,2.68l-4.69,0.67h-14.71l-12.04-2.68
	l-12.71-6.02l-7.36-5.35l-2.68-1.34l-2.01,8.7v11.37l2.68,6.69l1.33,2.01v3.34l-1.33,1.34l-3.35-0.67l-2.67-3.34l-2.68-6.69
	l-0.67-2.68v-10.7l2.68-10.03l2.01-4.02l-4.68-4.68l-3.34-2.68l-2.01-0.67l-1.34,4.01l-3.34,8.03l-0.67,3.34v13.38l-1.33,2.01
	l-4.02-0.67l-1.34-6.02v-7.35l2.01-9.36l4.68-9.37l1.34-2.01l-4.68-4.02l-5.35-3.34l-2.01-0.67l-1.33,4.01l-3.35,8.7l-2.67,13.38
	l-1.34,1.34l-3.34-0.67l-0.67-0.67v-6.69l2.01-9.37l3.35-8.69l2.67-4.68l-13.38-2.68l-5.35-0.67l2.01,9.37v11.37l-1.33,8.03
	l-1.34,2.68l-2.01,0.67l-2.67-2.01l0.67-6.69l0.67-5.35v-7.36l-2.01-8.03l-0.67-1.34h-4.68l-8.7,2.68l1.34,4.02l4.01,8.03l1.34,6.69
	v14.05l-2.01,3.34l-2.68,0.67l-1.34-2.01v-9.36l-0.67-8.7l-2.68-8.03l-3.34-5.35l-9.36,6.02l-3.34,2.68l1.34,2.68l5.35,9.36
	l2.01,6.02l0.67,4.68v9.36l-1.34,4.68l-1.34,1.34h-3.34l-1.34-2.68l0.67-3.34v-12.04l-2.67-8.03l-4.02-6.69l-2.68,1.34l-10.7,8.7
	l-12.71,8.03l-10.04,4.02l-7.35,2.01l-5.35,0.67H128.1l-9.36-2.01l-8.7-3.34l-8.7-4.68l-8.7-7.36l-5.35-6.02l-5.35-8.69l-3.34-9.36
	l-1.34-7.36v-8.7l2.01-10.04L83.28,138l5.35-8.03l7.36-8.03l6.02-6.02l11.37-8.69l10.04-6.69l10.03-6.02l-0.67-2.67V77.77l2.01-9.37
	l3.34-9.36l4.68-7.36l6.02-6.69l3.34-2.68l2.68,0.67l0.67,4.01l-5.35,5.35l-6.02,9.36l-3.34,8.7l-2.01,11.37l-0.67,10.04l15.39-8.03
	l4.68-1.33v-6.69l1.34-10.03l3.34-10.04L166.9,49l5.35-6.69l4.68-4.01l2.01-1.34h3.34l1.34,1.34l-0.67,3.34l-8.7,8.03l-4.02,6.02
	l-4.01,9.36l-1.34,6.69v7.35l14.05-5.35l7.36-2.01l3.34-14.05l5.35-11.37l6.02-7.36l6.69-6.02L215.01,28.93z"/>
<path class="st3" d="M218.35,234.97h13.38l10.04,2.01l10.7,4.01l8.7,5.35v1.34l3.34,1.34l5.35,6.02l5.35,8.03l3.34,8.69l1.34,6.69
	v15.39l-2.68,9.36l-4.01,8.03l-6.02,8.03l-6.02,5.35l-8.03,4.68l-10.7,3.34l-20.07,4.02l-8.69,3.34l-6.69,4.68l-6.02,6.69
	l-2.01,3.35l-0.67,2.67l3.34,1.34l9.36,4.68l3.34,1.34l0.67,2.68l-0.67,1.34h-4.68l-8.7-3.34l-5.35-4.02l-1.34,5.35l0.67,3.34
	l10.04,6.02l5.35,3.34v2.68l-0.67,0.67l-4.68-0.67l-6.69-3.35l-5.35-4.01h-1.34l-2.01,7.36l8.03,3.34l6.69,6.02l1.33,2.67v3.35
	l-3.34,0.67l-6.69-6.69l-6.69-4.02h-1.33l-2.01,5.35v2.01l5.35,2.68l6.02,4.68l2.67,3.34l0.67,1.34v4.68l-3.34,0.67l-4.02-5.35
	l-3.34-3.34l-5.35-3.35l-2.01-0.67l-0.67,3.34l-1.34,2.01v2.01l4.68,2.68l4.68,4.01l4.02,5.35l0.67,4.01l-1.34,1.34l-2.68-0.67
	l-7.35-8.7l-5.35-4.02l-2.01,0.67l-4.68,6.69l2.67,0.67l5.35,4.68l4.68,6.69l1.34,6.02l-1.34,1.34l-3.34-0.67l-4.68-8.69l-4.68-5.35
	l-3.35-1.34l-6.02,5.35l-14.05,8.7L135.4,441l-10.03,3.34l-13.38,2.68l-4.68,0.67H84.57l-14.05-2.01L60.48,443l-10.04-4l-7.36-4.02
	l-8.7-6.69l-6.02-6.02l-6.02-9.36l-3.35-8.7l-1.34-5.35l-0.67-12.04l2.01-11.38l3.35-8.03l6.02-8.7l5.35-5.35l6.69-4.68l9.36-4.68
	l8.7-2.01H68.5l-4.02-11.37l-4.68-8.03l0.67-3.35l2.68-0.67l4.02,4.68l4.01,8.03l2.68,8.7v2.68l6.02,0.67l7.36,1.34l-8.03-18.06
	l0.67-2.67l3.34-0.67l6.02,11.38l4.02,10.03h5.35l5.35-2.68l2.01-2.67l-6.69-4.02l-6.02-6.69l-2.68-4.68l0.67-3.35l2.67-0.67
	l1.34,0.67l3.34,6.02l4.68,4.68l6.02,3.35h1.34l4.02-8.03l-8.03-2.67l-6.02-4.02l-4.68-5.35l-1.34-2.67l0.67-3.35h3.34l5.35,6.69
	l6.02,4.01l3.34,1.34h3.34l2.01-6.69l-6.02-2.01l-6.69-4.02l-5.35-6.69l-1.34-4.02l1.34-2.68l2.67,0.67l4.69,6.02v1.34l2.67,1.33
	l5.35,3.35l4.68,0.67l2.01-6.02l-3.34-0.67l-6.02-3.35l-3.34-2.67l-4.02-6.02v-5.35l3.34-0.67l5.35,8.7l6.69,4.01l4.02,0.67
	l5.35-9.37l4.68-6.02l4.69-6.02h1.33l1.34-2.68l6.69-6.02l10.03-8.03l10.04-6.69l14.05-7.36l10.04-4.01l15.39-4.02L218.35,234.97z"
	/>
<path class="st4" d="M499.3,370.76h16.06l7.36,2.01l6.69,4.02l4.68,4.02l4.68,6.69l2.68,5.35l3.34,12.71l1.34,9.36v35.45l-2.68,17.4
	l-5.35,20.07l-4.02,10.7l-5.35,11.37l-7.36,11.38l-6.69,8.69l-7.36,8.03l-4.68,5.35l-5.35,5.35l-9.36,7.35l-12.04,8.03l-14.05,8.03
	l-15.39,7.36l-13.38,5.35l-19.4,5.35l-13.38,2.67l-9.36,1.34h-19.4l-9.36-2.01l-5.35-2.01l-7.36-4.02l-6.69-6.69l-4.02-6.69
	l-2.01-7.36v-13.38l3.34-8.7l4.68-6.69l6.69-6.02l6.69-3.34l6.02-1.34h17.39l13.38,2.01l8.03,0.67h11.38l12.71-2.67l12.04-4.68
	l8.7-4.68l8.03-6.02l4.68-4.02l6.02-7.36l6.02-9.36l4.68-10.7l2.68-9.36l1.34-6.02v-16.06l-1.34-10.7l-2.68-12.71l-1.34-8.7v-17.39
	l2.01-8.03l4.69-8.7l5.35-5.35l6.69-4.02L499.3,370.76z"/>
<path class="st5" d="M226.38,81.11h30.77l18.73,2.67l26.09,6.69l12.04,4.01l12.71,5.36l11.37,6.69l8.7,6.69l7.36,7.36l6.02,8.69
	l4.69,10.04l2.01,10.03v9.36l-2.01,8.03l-4.02,8.03l-8.03,8.03l-10.04,5.35l-2.68,0.67h-16.05l-7.36-2.68l-7.36-4.68l-9.36-8.03
	l-11.37-11.37l-12.04-8.03l-10.04-5.35l-10.7-4.02l-10.03-2.67h-21.41l-14.05,2.67l-10.03,4.02l-10.04,6.02l-9.36,7.36l-9.36,8.03
	l-7.36,6.02l-7.36,5.35l-9.36,4.02l-6.02,1.34h-8.69l-8.03-2.01l-7.35-4.69l-5.35-6.02l-2.68-7.36v-14.05l2.68-6.69l5.35-8.03
	l8.69-8.7l7.36-6.02l10.04-8.03l15.39-10.04l10.03-6.02l16.06-7.36l14.05-5.35l12.71-3.34L226.38,81.11z"/>
<path class="st6" d="M221.02,259.05h12.71l8.69,2.68l6.69,4.68l4.68,5.35l3.34,6.69l0.67,3.34v9.36l-1.34,6.02l-3.35,6.69
	l-6.02,6.69l-6.69,4.01l-7.36,2.68l-24.08,5.35l-8.03,3.34l-6.69,4.68l-6.69,6.69l-5.35,8.7l-3.34,8.7l-2.68,12.04l-5.35,14.71
	l-6.02,11.38l-6.02,8.03l-6.69,7.36l-6.69,5.35l-7.36,4.02l-11.37,4.68l-20.07,4.01H79.85l-11.37-2.01l-12.04-5.35l-7.36-5.35
	l-4.68-4.68l-5.35-10.7l-0.67-3.34V382.8l3.34-8.03l5.35-7.36l6.02-4.02l4.68-2.01h10.7l10.03,3.34l9.36,2.01l3.35,0.67h10.03
	l10.7-2.01l6.02-3.35l6.02-4.68l4.02-6.02l3.34-10.7l1.34-14.05l3.34-10.7l4.02-8.69l5.35-8.7l6.02-6.69l4.68-4.69l8.03-6.02
	l9.36-6.02l14.05-7.36l14.71-5.35l12.04-2.67L221.02,259.05z"/>
<path class="st7" d="M505.32,346.68h7.36l11.38,2.01l10.7,4.01l7.35,4.68l8.03,6.69l6.02,7.36l4.68,7.35l7.36-0.67l9.36-2.68
	l11.37-5.35l3.34-2.01l2.68,0.67l0.67,4.01l-6.02,4.69l-10.7,4.68l-9.37,2.67l-5.35,1.34l4.02,11.38h10.7l12.71-2.68l8.03-2.68
	l3.34,0.67l0.67,3.34l-2.01,2.01l-8.03,3.34l-8.7,2.01l-6.02,0.67h-8.7l2.68,14.05l11.37,1.34l11.37-0.67l6.02-1.34l4.68,0.67
	l0.67,3.34l-2.01,2.01l-6.69,2.01l-6.02,0.67h-12.04l-7.35-1.33l0.67,16.72l10.7,2.01h21.41l0.67,4.68l-4.01,2.01l-4.68,0.67h-11.38
	l-10.7-2.01l-2.01-0.67l-1.34,8.7l-1.34,6.69l6.02,1.34l10.7,2.68l11.38,0.67l6.02,0.67l0.67,4.02l-2.01,1.34l-3.34,0.67h-10.7
	l-12.04-2.67l-8.03-2.68l-0.67,6.02l-2.68,8.7v1.33l13.38,4.68l9.36,2.01l8.7,0.67l1.34,3.34l-2.01,2.01l-1.34,0.67h-6.69
	l-10.7-2.01l-14.72-5.35l-0.67,3.35l-4.68,11.37l4.02,1.34l10.03,4.68l14.72,4.02l1.34,0.67v3.34l-1.34,1.34h-6.02l-10.04-2.68
	l-10.7-4.68l-3.34-2.01h-1.34l-6.02,10.7l-1.34,2.68l4.02,1.34l12.71,6.69l12.71,4.68v3.34l-1.34,1.34h-4.68l-10.04-3.34L550.13,534
	l-4.02-2.68v-1.34l-2.68,2.68l-6.02,8.7l1.34,2.67l9.36,6.02l7.36,4.02l8.03,4.02l0.67,0.67v4.02l-0.67,0.67h-4.01l-12.71-6.02
	l-8.7-6.02l-4.02-3.34l-2.68,0.67l-7.35,8.03l4.01,5.35l9.36,8.7l10.7,8.03v3.34l-2.01,1.34l-3.34-0.67l-7.36-5.35l-6.69-6.02
	l-4.68-4.01l-4.68-5.35l-4.68,4.02l-5.35,4.68l1.34,3.34l6.69,8.7l4.68,5.35v1.34l2.01,0.67l3.34,3.34l3.34,4.01l-0.67,3.35
	l-2.68,0.67l-4.02-2.68l-4.68-4.01l-4.68-5.35l-7.36-9.36l-3.34-4.68l-7.36,4.68l-4.68,3.34h-1.34l4.02,6.02l8.7,13.38l5.35,9.36
	v4.02l-2.01,1.34l-2.68-0.67l-3.34-5.35l-6.69-11.38l-4.69-6.69l-3.34-4.68l-3.34,0.67l-10.03,6.02l5.35,12.71l3.34,10.7l0.67,3.35
	v6.69l-0.67,0.67h-4.01l-1.34-2.01l-2.01-10.7l-4.01-10.7l-3.34-7.36l-3.35,0.67l-10.7,4.68l-0.67,2.01l2.68,10.04l1.34,8.69v13.38
	l-1.34,2.01h-3.34l-1.34-2.67l-0.67-12.04l-2.68-14.05l-1.33-4.02l-13.38,4.02h-1.34l1.34,9.36v18.06l-1.34,7.35l-0.67,0.67h-4.02
	l-0.67-0.67v-26.09l-0.67-6.02l-8.03,1.34l-9.36,2.01h-2.01v16.05l-1.34,10.7l-2.01,6.02l-2.01,1.34l-3.34-0.67v-6.02l2.01-12.04
	l0.67-14.72l-2.01,0.67h-16.72l-0.67,7.36L376.22,637l-4.02,9.36l-4.01,5.35l-0.67,0.67h-4.01l-0.67-0.67l0.67-4.68l4.01-6.69
	l4.02-12.04l2.01-9.37l-11.37-1.33l-7.36-2.01l-1.34,6.02l-4.68,10.7l-6.69,10.04l-3.35,4.01l-4.01,0.67l-1.34-1.34l0.67-4.68
	l4.68-5.35l4.69-7.35l6.02-14.72l-6.02-2.01l-8.7-4.68l-8.7-7.36l-6.02-7.36l-4.01-6.69l-3.35-10.04l-1.33-8.7v-11.37l2.01-10.7
	l3.34-9.36l6.02-9.36l6.02-6.69l8.03-6.02l-0.67-4.01l-5.35-8.7l-5.35-6.69l-4.02-3.35v-3.34l1.34-1.34l4.02,0.67l7.35,7.36
	l4.68,6.69l4.02,8.03l4.02-0.67l5.35-2.01l-0.67-4.69l-4.68-10.7l-5.35-8.03l0.67-4.01l2.67-0.67l4.02,3.34l5.35,8.7l4.01,10.7
	l0.67,2.68l9.36-0.67l-3.34-16.05l-2.01-6.69l0.67-4.01l0.67-0.67h3.34l3.34,7.36l2.01,8.7l1.34,10.7l12.71,0.67l-0.67-8.03
	l-2.68-10.03l-2.68-6.69l0.67-3.34l3.35-1.34l2.01,2.01l4.02,10.04l2.67,13.38v4.68h12.71l-2.01-9.36l-3.34-8.7l-4.01-8.7l1.33-2.67
	l3.35-0.67l2.67,3.34l5.35,11.38l2.01,6.69l0.67,7.36l10.7-3.34l8.03-4.02v-2.68l-6.69-5.35l-3.34-3.34l-6.69-7.36l-2.68-4.02
	l0.67-3.34l4.01-0.67l2.68,2.67l4.68,6.02l7.36,7.36l6.69,4.68l4.68-4.01l4.68-6.69l4.68-10.7l-8.69-0.67l-12.71-3.34l-10.7-4.69
	l-0.67-0.67v-4.02l0.67-0.67h4.68l8.03,3.34l13.38,3.34l7.36,0.67l0.67-9.36v-8.03l-11.38,2.01h-12.71l-10.04-2.01l-2.67-1.33
	l-0.67-2.68l2.01-2.68h4.68l6.69,1.34h14.05l9.36-1.34l-1.34-8.7l-0.67-4.01l-9.36,1.34h-18.06l-7.36-1.34l-2.01-2.01l0.67-3.34
	l0.67-0.67h5.35l4.02,0.67h14.72l8.03-1.34h3.34v-14.71l2.01-11.38l4.02-10.7l4.02-7.36l5.35-6.69l6.69-6.69l9.37-6.02l7.35-3.34
	l9.36-2.68L505.32,346.68z M500.64,353.37l-6.69,1.34l-7.36,3.34l-6.69,4.01l-6.69,6.02l-6.02,6.69l-6.02,10.7l-2.68,8.69
	l-0.67,4.02v26.09l2.68,24.75v8.7l-1.34,8.7l-3.34,10.03l-4.68,8.03l-4.68,6.02l-6.69,6.69l-8.7,5.35l-8.03,3.35l-10.7,2.67
	l-4.68,0.67h-40.14l-9.36,1.34l-10.03,3.34l-9.37,5.35l-8.69,7.36l-5.35,7.36l-4.01,8.03l-2.68,8.7v18.06l2.68,10.7l4.01,8.03
	l6.02,8.03h1.34l0.67,2.01l7.35,5.35l10.7,5.35l12.04,3.35l4.02,0.67h29.43l12.71-2.01l12.04-2.68l19.4-6.02l18.73-7.36l10.7-5.35
	l8.7-4.68l12.71-8.03l14.05-10.7l8.7-8.03l10.04-10.03l6.02-7.36l8.03-11.38l7.36-12.04l5.35-10.7l5.35-12.71l4.01-11.37l4.02-15.39
	l2.01-14.05v-35.46l-2.01-11.37l-4.02-14.05l-5.35-10.7l-4.68-6.69l-7.36-8.03l-8.03-6.02l-6.02-3.34l-11.38-3.34H500.64z"/>
<path class="st8" d="M215.01,28.93l3.34,0.67l1.34,2.68l-3.35,3.34l-7.35,4.68l-6.02,6.02l-5.35,8.03l-3.34,10.04l-1.34,6.02
	l8.03-2.01l10.7-1.33h6.69l0.67-5.35l4.68-10.7l6.02-8.03l6.02-5.35l6.02-4.01l5.35-2.01h4.68l1.33,1.34l-0.67,3.34l-1.34,1.34
	l-6.69,2.01l-8.03,6.02l-5.35,6.02l-5.35,10.7l-0.67,4.02h20.07l2.68-6.69l6.02-8.7l6.02-6.02l9.36-6.02l7.36-2.68h6.02l1.34,1.34
	l-0.67,3.34l-4.68,2.01l-8.7,3.34l-7.35,5.35l-5.35,5.35l-6.02,10.7l9.36,0.67l11.38,2.01l2.67,0.67l0.67-2.68l4.68-7.35l6.02-6.69
	l8.03-6.02l8.03-3.34l4.02-1.34h5.35l2.01,1.34l-0.68,4l-11.37,3.34l-7.36,4.02l-8.03,7.35l-5.35,7.36v1.34l16.72,4.02h3.35
	l6.02-7.36l6.69-6.02l9.36-5.35l6.69-2.67l6.02-1.34h4.02l1.34,0.67l0.67,2.68l-0.67,2.01l-14.05,4l-9.37,5.35l-6.69,6.02
	l-3.34,3.35l-1.34,2.01l7.36,2.01l9.36,4.02l4.02-0.67l3.34-4.01l7.36-5.35l6.69-4.01l7.36-2.68l7.36-1.34h5.35l2.01,1.34v3.34
	l-2.01,1.34l-10.7,2.01l-8.7,3.34l-7.35,4.68l-5.35,4.69h-1.34v1.33l4.02,1.34l12.04,6.69h2.67l5.35-4.02l10.7-5.35l8.7-2.01h9.36
	l8.03,2.01l1.34,1.33l-0.67,3.35l-3.34,0.67l-5.35-0.67h-7.36l-8.03,2.01l-9.36,4.02l-4.68,3.34l3.34,3.34l7.36,6.02l6.02,6.02v1.34
	l11.38-4.02l5.35-1.34h8.7l8.7,2.01l8.03,4.02l1.34,1.34l-0.67,3.34l-0.67,0.67l-4.68-0.67l-9.36-3.34h-14.08l-8.03,2.68h-1.33
	l6.02,9.36l2.01,4.68l11.37,0.67l8.03,2.01l9.37,4.68l6.69,5.35l0.67,3.34l-2.01,2.01l-4.68-2.01l-6.69-4.68l-8.03-3.34L386.27,144
	l2.01,10.7v12.71l-2.01,9.36l-3.35,8.7l-6.69,10.04l-4.02,4.68l-9.36,7.35l-10.03,5.35l-9.36,2.68l-4.69,0.67h-14.71l-12.04-2.68
	l-12.71-6.02l-7.36-5.35l-2.68-1.34l-2.01,8.7v11.37l2.68,6.69l1.33,2.01v3.34l-1.33,1.34l-3.35-0.67l-2.67-3.34l-2.68-6.69
	l-0.67-2.68v-10.7l2.68-10.03l2.01-4.02l-4.68-4.68l-3.34-2.68l-2.01-0.67l-1.34,4.01l-3.34,8.03l-0.67,3.34v13.38l-1.33,2.01
	l-4.02-0.67l-1.34-6.02v-7.35l2.01-9.36l4.68-9.37l1.34-2.01l-4.68-4.02l-5.35-3.34l-2.01-0.67l-1.33,4.01l-3.35,8.7l-2.67,13.38
	l-1.34,1.34l-3.34-0.67l-0.67-0.67v-6.69l2.01-9.37l3.35-8.69l2.67-4.68l-13.38-2.68l-5.35-0.67l2.01,9.37v11.37l-1.33,8.03
	l-1.34,2.68l-2.01,0.67l-2.67-2.01l0.67-6.69l0.67-5.35v-7.36l-2.01-8.03l-0.67-1.34h-4.68l-8.7,2.68l1.34,4.02l4.01,8.03l1.34,6.69
	v14.05l-2.01,3.34l-2.68,0.67l-1.34-2.01v-9.36l-0.67-8.7l-2.68-8.03l-3.34-5.35l-9.36,6.02l-3.34,2.68l1.34,2.68l5.35,9.36
	l2.01,6.02l0.67,4.68v9.36l-1.34,4.68l-1.34,1.34h-3.34l-1.34-2.68l0.67-3.34v-12.04l-2.67-8.03l-4.02-6.69l-2.68,1.34l-10.7,8.7
	l-12.71,8.03l-10.04,4.02l-7.35,2.01l-5.35,0.67H128.1l-9.36-2.01l-8.7-3.34l-8.7-4.68l-8.7-7.36l-5.35-6.02l-5.35-8.69l-3.34-9.36
	l-1.34-7.36v-8.7l2.01-10.04L83.28,138l5.35-8.03l7.36-8.03l6.02-6.02l11.37-8.69l10.04-6.69l10.03-6.02l-0.67-2.67V77.77l2.01-9.37
	l3.34-9.36l4.68-7.36l6.02-6.69l3.34-2.68l2.68,0.67l0.67,4.01l-5.35,5.35l-6.02,9.36l-3.34,8.7l-2.01,11.37l-0.67,10.04l15.39-8.03
	l4.68-1.33v-6.69l1.34-10.03l3.34-10.04L166.9,49l5.35-6.69l4.68-4.01l2.01-1.34h3.34l1.34,1.34l-0.67,3.34l-8.7,8.03l-4.02,6.02
	l-4.01,9.36l-1.34,6.69v7.35l14.05-5.35l7.36-2.01l3.34-14.05l5.35-11.37l6.02-7.36l6.69-6.02L215.01,28.93z M216.34,73.08
	l-14.71,1.34l-21.41,5.35l-10.7,4.01l-20.07,8.7l-12.04,6.69l-12.04,7.35l-10.04,7.36l-8.69,6.69l-6.69,6.02l-6.69,7.36l-4.68,6.69
	l-3.34,6.69l-2.01,8.03v10.7l2.68,10.7l6.02,11.38l7.36,8.03l3.34,2.68l7.36,4.68l11.37,4.68l6.02,1.34h18.73l12.04-3.34l11.38-6.02
	l10.03-7.36l9.36-8.03l6.69-6.02l9.36-6.69l10.7-5.35l7.36-2.68l3.34-0.67h15.39l10.7,2.01l8.03,3.34l8.7,4.68l9.36,8.03l8.03,7.36
	l6.69,6.69l10.03,7.35l9.36,4.68l6.69,2.01l6.69,1.34h9.36l8.7-1.34l8.7-3.34l8.69-5.35l8.03-7.36l6.69-9.36l3.34-6.69l1.34-3.34
	l1.34-6.69V154.7l-2.68-10.04l-3.34-8.69l-4.68-7.36l-6.02-6.69l-4.68-5.35l-7.36-6.02l-8.03-6.02l-12.71-7.36l-12.71-6.02
	l-22.07-8.03l-14.72-4.02l-21.41-4.01l-14.71-2.01L216.34,73.08L216.34,73.08z"/>
<path class="st9" d="M218.35,234.97h13.38l10.04,2.01l10.7,4.01l8.7,5.35v1.34l3.34,1.34l5.35,6.02l5.35,8.03l3.34,8.69l1.34,6.69
	v15.39l-2.68,9.36l-4.01,8.03l-6.02,8.03l-6.02,5.35l-8.03,4.68l-10.7,3.34l-20.07,4.02l-8.69,3.34l-6.69,4.68l-6.02,6.69
	l-2.01,3.35l-0.67,2.67l3.34,1.34l9.36,4.68l3.34,1.34l0.67,2.68l-0.67,1.34h-4.68l-8.7-3.34l-5.35-4.02l-1.34,5.35l0.67,3.34
	l10.04,6.02l5.35,3.34v2.68l-0.67,0.67l-4.68-0.67l-6.69-3.35l-5.35-4.01h-1.34l-2.01,7.36l8.03,3.34l6.69,6.02l1.33,2.67v3.35
	l-3.34,0.67l-6.69-6.69l-6.69-4.02h-1.33l-2.01,5.35v2.01l5.35,2.68l6.02,4.68l2.67,3.34l0.67,1.34v4.68l-3.34,0.67l-4.02-5.35
	l-3.34-3.34l-5.35-3.35l-2.01-0.67l-0.67,3.34l-1.34,2.01v2.01l4.68,2.68l4.68,4.01l4.02,5.35l0.67,4.01l-1.34,1.34l-2.68-0.67
	l-7.35-8.7l-5.35-4.02l-2.01,0.67l-4.68,6.69l2.67,0.67l5.35,4.68l4.68,6.69l1.34,6.02l-1.34,1.34l-3.34-0.67l-4.68-8.69l-4.68-5.35
	l-3.35-1.34l-6.02,5.35l-14.05,8.7L135.4,441l-10.03,3.34l-13.38,2.68l-4.68,0.67H84.57l-14.05-2.01L60.48,443l-10.04-4l-7.36-4.02
	l-8.7-6.69l-6.02-6.02l-6.02-9.36l-3.35-8.7l-1.34-5.35l-0.67-12.04l2.01-11.38l3.35-8.03l6.02-8.7l5.35-5.35l6.69-4.68l9.36-4.68
	l8.7-2.01H68.5l-4.02-11.37l-4.68-8.03l0.67-3.35l2.68-0.67l4.02,4.68l4.01,8.03l2.68,8.7v2.68l6.02,0.67l7.36,1.34l-8.03-18.06
	l0.67-2.67l3.34-0.67l6.02,11.38l4.02,10.03h5.35l5.35-2.68l2.01-2.67l-6.69-4.02l-6.02-6.69l-2.68-4.68l0.67-3.35l2.67-0.67
	l1.34,0.67l3.34,6.02l4.68,4.68l6.02,3.35h1.34l4.02-8.03l-8.03-2.67l-6.02-4.02l-4.68-5.35l-1.34-2.67l0.67-3.35h3.34l5.35,6.69
	l6.02,4.01l3.34,1.34h3.34l2.01-6.69l-6.02-2.01l-6.69-4.02l-5.35-6.69l-1.34-4.02l1.34-2.68l2.67,0.67l4.69,6.02v1.34l2.67,1.33
	l5.35,3.35l4.68,0.67l2.01-6.02l-3.34-0.67l-6.02-3.35l-3.34-2.67l-4.02-6.02v-5.35l3.34-0.67l5.35,8.7l6.69,4.01l4.02,0.67
	l5.35-9.37l4.68-6.02l4.69-6.02h1.33l1.34-2.68l6.69-6.02l10.03-8.03l10.04-6.69l14.05-7.36l10.04-4.01l15.39-4.02L218.35,234.97z
	 M217.01,240.99L204.97,243l-12.04,4.01l-10.7,4.68l-14.05,8.03l-8.7,6.69l-7.36,6.02l-12.04,12.04l-6.02,8.69l-4.68,8.03
	l-5.35,13.38l-2.01,8.7l-4.02,10.7l-4.68,7.36l-2.68,3.34l-6.69,4.02l-5.35,2.01H87.23l-16.06-3.34H59.13l-10.7,3.34l-7.36,4.68
	l-6.69,5.35l-6.02,8.03l-3.34,7.36l-2.01,7.35v10.04l2.01,10.7l5.35,10.7l4.68,6.02l4.68,4.68l9.36,6.02l10.04,4.68l10.7,3.34
	l12.04,2.01h26.76l12.71-2.01l16.06-5.35l12.71-6.69l10.7-8.03l6.02-6.02l7.36-10.03l6.02-11.38l4.01-12.04l7.36-23.41l5.35-10.04
	l4.01-4.68l7.36-5.35l8.03-4.02l12.71-3.34l14.71-2.68l8.7-3.34l7.36-4.68l6.02-6.02l4.68-7.36l2.68-8.03l0.67-3.34V277.1l-2.68-8.7
	l-4.68-8.03l-7.36-8.03l-6.69-4.68l-6.69-3.35l-9.36-2.67l-3.35-0.67h-16.04L217.01,240.99L217.01,240.99z"/>
<path class="st10" d="M598.98,257.71l3.34,0.67l2.01,5.35l2.68,11.38v2.67l6.02-0.67l3.34-14.05l2.01-4.68l3.35-0.67l2.01,1.34v4.68
	l-4.02,15.39l6.02,1.34l7.36-8.7l4.68-5.35l0.67-0.67h3.35l1.34,1.34l-0.67,4.68l-8.03,9.37l-4.02,6.02l2.68,1.34l2.68,2.68
	l14.05-6.69l3.34-0.67l2.01,2.01l-0.67,3.34l-5.35,3.34l-11.37,5.35l0.67,6.02l19.4-0.67l2.01,2.01l-0.67,3.34l-2.68,1.34
	l-17.39,0.67l-1.34,6.02l13.38,5.35l3.34,2.01l-0.67,4.68l-2.68,0.67l-10.04-3.34l-5.35-2.68l-2.68,0.67l-2.01,2.01l1.34,3.34
	l7.35,10.04l2.01,2.67v3.35l-1.34,1.33h-3.34l-5.35-6.02l-6.02-9.36l-3.34,0.67l-3.34,0.67l4.01,16.72v4.68l-2.01,1.34l-3.34-0.67
	l-2.01-5.35l-2.68-13.38l-0.67-1.33h-6.02l-3.34,18.06l-2.67,2.68l-2.68-1.34l-1.34-2.01l1.34-8.03l2.68-11.38l-6.69-2.01
	l-1.34,2.68l-6.02,6.69l-4.68,5.35l-2.67,0.67l-2.68-2.68l2.01-4.68l6.69-7.36l3.35-4.01l0.67-2.01h-1.34l-1.34-3.34l-14.05,6.02
	l-4.01,1.34l-3.35-0.67l-0.67-4.02l4.68-3.34l13.38-5.35l-0.67-6.69l-18.06-0.67l-3.34-2.01l0.67-3.34l2.01-1.34h19.4l1.34-5.35
	l-6.02-2.01l-11.38-6.02l-1.34-1.34l0.67-4.01l4.01-0.67l10.7,5.35l6.69,3.34l1.34-2.68l1.34-2.67l-7.36-8.7l-4.68-6.69l0.67-3.35
	l4.02-0.67l6.02,6.69l6.02,8.03l3.34-0.67l2.68-1.34l-0.67-5.35l-2.68-9.36v-5.35L598.98,257.71z"/>
<path class="st11" d="M219.02,89.14h14.72l6.69,2.68l6.02,5.35l2.68,6.02v4.68l-2.01,4.02l-4.69,4.01l-4.68,1.34l-14.71,0.67
	l-9.36,2.01l-17.4,6.02l-11.37,6.69l-8.7,6.69l-8.7,8.03l-4.68,4.68l-5.35,4.68l-6.69,4.68l-7.36,2.68h-6.02l-6.02-2.68l-4.68-5.35
	l-1.34-4.02v-7.36l2.68-6.69l6.02-6.69l11.37-8.7l10.04-7.36l12.04-7.36l10.7-6.02l12.71-5.35l12.04-4.02l7.35-2.01L219.02,89.14z"
	/>
<path class="st12" d="M61.15,221.59h8.7l8.69,2.67l7.36,4.68l4.02,3.35l4.68,6.69l3.34,8.03l0.67,4.02v8.7l-1.33,6.02l-4.02,8.03
	l-6.02,6.69l-8.7,5.35l-6.69,2.01H58.47l-9.36-3.34l-6.02-4.68l-4.68-4.68l-5.35-10.7l-1.34-8.03l0.67-8.69l2.01-6.69l4.68-7.36
	l4.69-4.68l7.35-4.68L61.15,221.59z"/>
<path class="st13" d="M509.34,465.09h4.68l5.35,2.68l4.68,6.02l1.34,3.34v8.69l-2.01,7.36l-5.35,10.7l-5.35,9.36l-7.36,9.36
	l-7.35,8.7h-1.34l-1.34,2.68l-9.36,8.7l-10.7,7.35l-6.69,2.68l-2.67,0.67h-6.69l-4.01-2.01l-3.35-5.35V538l3.35-6.69l6.69-6.69
	l7.36-6.02l12.71-12.71l7.36-10.04l6.69-14.72l3.34-8.03l2.68-3.34l6.02-4.02L509.34,465.09z"/>
<path class="st14" d="M319.36,116.56h9.36l9.36,2.68l6.69,4.68l4.68,4.68l4.02,8.03l1.34,4.68v8.03l-2.01,8.03l-3.35,6.02
	l-4.68,5.35l-6.69,4.02l-9.36,2.67h-8.03l-7.36-2.01l-7.36-4.02l-4.68-4.68l-4.02-6.69l-2.01-6.69v-10.7l3.34-8.7l5.35-6.69
	l6.69-5.35L319.36,116.56z"/>
<path class="st15" d="M434.42,68.4h9.36l8.03,2.68l7.36,5.35l4.02,6.02l2.01,7.35v8.03l-2.01,6.69l-4.02,5.35l-5.35,4.68l-6.69,2.67
	l-2.01,0.67h-9.36l-6.69-2.01l-6.69-4.01l-4.68-5.35l-2.68-5.35l-1.34-6.02V89.8l2.01-7.35l4.01-6.02l5.35-4.68l6.02-2.68
	L434.42,68.4z"/>
<path class="st16" d="M370.87,536.66h8.03l8.03,2.67l6.02,4.68l4.02,5.35l2.01,4.68v7.36l-1.34,6.02l-5.35,8.69l-4.01,2.68
	l-9.36,3.34h-11.4l-6.69-3.34l-5.35-4.01l-2.67-4.68l-1.34-5.35v-8.7l1.34-5.35l3.34-5.35l5.35-4.68l6.69-3.34L370.87,536.66z"/>
<path class="st17" d="M323.37,238.98h6.69l8.69,2.68l6.02,4.68l4.02,6.69l1.34,5.35v6.02l-1.34,5.35l-4.02,6.69l-4.68,4.02
	l-5.35,2.68l-8.7,1.34l-7.36-1.34l-6.69-4.02l-4.68-6.02l-2.01-4.68l-0.67-3.34v-7.36l2.01-6.69l2.68-4.02l4.68-4.68l6.02-2.68
	L323.37,238.98z"/>
<path class="st18" d="M508,404.88h11.38l8.03,4.02l4.68,5.35l2.68,6.02v9.36l-2.68,7.35l-5.35,6.02l-5.35,2.68l-4.68,1.34h-8.03
	l-6.02-2.01l-6.69-6.02l-3.34-6.69l-0.67-4.01v-6.02l2.01-6.69l6.02-6.69L508,404.88z"/>
<path class="st19" d="M268.52,594.86h8.69l6.69,2.67l4.68,3.35l4.01,6.02l1.34,5.35v4.68l-2.01,6.69l-4.02,5.35l-5.35,4.02
	l-6.69,2.01l-8.69-0.67l-5.35-2.68l-4.68-4.02l-3.34-5.35l-1.34-5.35v-4.68l2.01-6.69l4.02-5.35l6.02-4.01L268.52,594.86z"/>
<path class="st20" d="M415.69,541.35h7.36l7.35,2.67l3.35,2.68l4.01,6.02l0.67,2.68v8.7l-3.35,6.69l-3.34,3.34l-4.01,2.68
	l-4.02,1.34h-7.36l-8.03-3.34l-4.02-4.68l-2.01-4.02l-0.67-4.02v-7.36l3.34-6.02l4.68-4.69L415.69,541.35z"/>
<path class="st21" d="M136.07,367.42h7.36l6.69,3.34l4.02,4.68l2.01,5.35v6.69l-2.01,6.02l-6.02,5.35l-6.02,2.67h-6.69l-5.35-2.67
	l-4.68-4.69l-2.01-4.68v-10.7l4.01-6.02l4.68-4.01L136.07,367.42z"/>
<path class="st22" d="M438.43,329.96h6.02l5.35,2.01l4.68,4.01l2.68,5.35l0.67,5.35l-2.01,7.36l-4.68,5.35l-5.35,2.67h-9.36
	l-5.35-2.67l-4.02-4.68l-2.01-4.68v-6.69l2.68-6.69l5.35-4.68L438.43,329.96z"/>
<path class="st23" d="M161.49,309.22h5.35l6.02,2.68l2.68,3.34l2.67,6.02v4.68l-2.01,6.02l-5.35,4.68l-2.68,1.34h-9.36l-5.35-2.68
	l-3.34-4.02l-2.01-4.68v-6.02l2.68-6.02l3.34-2.67L161.49,309.22z"/>
<path class="st24" d="M508.67,411.57h10.03l5.35,3.34l4.01,6.02v8.7l-2.67,5.35L520.7,439l-3.34,1.34H508l-4.01-2.68l-4.02-4.68
	l-1.34-4.68l0.67-8.03l4.02-5.35L508.67,411.57z"/>
<path class="st25" d="M81.21,381.47h5.35l7.35,2.68l2.68,3.34l2.01,4.68v6.69l-2.67,5.35l-6.02,4.02l-2.68,0.67h-7.36l-6.69-4.02
	l-2.01-2.67l-0.67-2.68v-7.36l2.68-5.35l4.68-4.02L81.21,381.47z"/>
<path class="st26" d="M57.8,226.94h12.71l7.36,2.68l0.67,2.68l-2.67,2.01l-12.71,2.68L55.8,241l-4.68,4.02l-2.67,4.02l-3.35,8.69
	l-2.01,10.04l-3.34-0.67l-2.01-3.34l-1.34-5.35v-7.36l1.34-6.02l4.68-8.7l5.35-5.35l6.69-3.34L57.8,226.94z"/>
<path class="st27" d="M415.69,548.03h8.03l4.02,2.01l3.34,4.02l1.34,2.68v6.02l-2.01,4.01l-4.68,4.02l-2.01,0.67h-7.36l-4.68-2.67
	l-2.68-3.35l-1.33-2.67v-5.35l2.67-5.35l4.02-3.34L415.69,548.03z"/>
<path class="st28" d="M566.87,201.52h5.35l4.68,2.68l3.34,5.35v5.35l-2.67,5.35l-4.02,2.67l-2.01,0.67h-4.68l-4.02-2.01l-3.34-4.02
	l-0.67-2.01v-6.69l2.68-4.01l3.34-2.68L566.87,201.52z"/>
<path class="st29" d="M71.18,473.78l5.35,0.67l4.68,4.02l1.34,3.34v4.68l-2.68,4.68l-5.35,2.68h-4.68l-4.68-2.68l-2.01-3.34
	l-0.67-5.35l2.01-4.68l4.02-3.34L71.18,473.78z"/>
<path class="st30" d="M130.05,239.65h4.68l4.02,2.01l2.67,4.01v5.35l-2.01,4.01l-4.02,2.68h-6.02l-3.35-2.01l-2.01-2.68l-0.67-5.35
	l2.67-5.35l2.01-2.01L130.05,239.65z"/>
<path class="st31" d="M154.13,443.68l5.35,1.34l2.68,3.34l0.67,1.34v4.68l-2.01,3.34l-2.68,2.01l-4.68,0.67l-4.68-2.01l-2.68-4.68
	l0.67-5.35l3.34-3.34L154.13,443.68z"/>
<path class="st32" d="M522.05,299.86h5.35l4.01,2.68l1.34,2.01v6.02l-3.34,4.01l-1.34,0.67h-5.35l-4.02-2.68l-1.34-2.68l0.67-6.02
	L522.05,299.86z"/>
<path class="st33" d="M287.25,511.91h5.35l4.02,2.68l1.34,3.34l-0.67,4.68l-3.34,4.02l-6.02,0.67l-4.01-2.68l-1.34-2.01v-6.02
	l3.34-4.02L287.25,511.91z"/>
<path class="st34" d="M1671.16,101.16c-1.65,1.09-3.69,0.42-5.71,0.12l-4.4-0.65l-33.38-0.2c0.15-0.56,0.78-1.09,1.68-1.08
	l30.11,0.2C1663.57,99.58,1667.49,100.35,1671.16,101.16z"/>
<path class="st35" d="M1679.51,403.9c-1.82,0.46-3.76,1.57-5.55,0.56C1675.6,404.37,1677.86,402.26,1679.51,403.9z"/>
<path class="st36" d="M1482.66,193.66c0.14-1.79,1.36-3.18,2.47-4.51C1486.66,188.91,1484.18,192.99,1482.66,193.66z"/>
<path class="st36" d="M1486.81,187.08c-0.14-1.11,0.65-1.87,1.57-2.38c0.51,0.54,0.3,1.15-0.17,1.87
	C1487.93,186.97,1487.44,187.84,1486.81,187.08z"/>
<g>
	<path class="st37" d="M787.57,334.59l-0.02,76.09l43.18,0.01c1.02-0.51,1.81-0.62,2.97-0.72l75.25,0.12l-0.26,75.63H710.54
		c-1.13-0.02-1.51,0.58-2.37,0.39l0.03-378.97l200.73-0.01l-0.23,76.34H787.57l-0.02,74.72l42.22-0.03l73.14,0.05l-0.22,76.39
		L787.57,334.59z"/>
	<g>
		<rect x="1352.83" y="106.84" class="st38" width="81.1" height="378.88"/>
		<g>
			<path class="st39" d="M1189.94,149.6l1.87-6.61c1.49-1.39,1.15-3.5,2.06-5.23c5.18-9.88,0.89-8.57,5.14-13.69
				c0.58-1.36,0.86-2.91,1.51-4c0.83-2.8,1.59-5.6,2.31-8.4c0.59-1.19,0.62-4.38,2.93-4.38l83.94-0.16c0.59,0,0.79,0.35,0.91,0.51
				c-0.09-0.12,1.06,9.46,1.16,11.16l0.35,5.87l25.62,310.24l4.12,50.79l-79.82,0.03l-2.3-19.93l-8.87-120.47l-4.63-63.55
				c-0.45-6.21-0.76-11.81-0.74-18.04c0-0.8-1.39-0.47-1.72-0.21c-0.24,0.19-0.58,0.35-0.82,1.1l-21.25,66.78l-48.05,149.13
				c-0.35,1.1-1.18,2.29-2.25,2.3l-47.14,0.21l-3.96-10.59l-43.19-134.36l-23.67-73.66l-2.32-2.27c-0.9,7.45-0.68,13.91-1.22,21.32
				l-14.05,194.85c-0.21,2.89-0.21,5.03-1.68,7.37l-78.31-0.01c0.1-6.7-0.35-12.87,0.16-19.4l4-51.78c0.17-2.23,0.06-4,0.24-6.2
				l0.47-5.84c0.17-2.08,0.46-3.96,0.54-5.89l0.32-7.42c0.07-1.51,0.85-11.85,1.83-12.67l0.11-4.62c0.18-7.84,1.93-15.76,2.01-23.82
				c0.02-2.6,0.07-4.58,0.28-7.05l0.48-5.72l0.41-8.52c0.12-2.42,1.29-11.59,1.28-10.65c0.03-2.49-0.33-4.35,1.05-6.65l0.08-4.46
				c0.14-7.31,1.78-14.68,1.9-22.19c0.07-4.23-0.18-8.06,0.24-12.28l2.51-25.21c0.24-2.39,1.15-4.21,0.94-6.98
				c-0.1-1.34,0.54-3.52,0.62-5.13l0.41-8.36c0.05-0.95,0.3-2.74,0.54-3.88c0.85-3.94-0.09-7.36,0.25-11.22l2.78-32.48
				c0.18-2.13,1.47-4.38,0.84-6.84c-0.26-1.02,0.66-2.78,0.76-4.16l1.3-18.93c0.36-5.17,0.19-10.37,0.74-16.22l0.58-6.13
				c0.19-2.07-0.44-4.2,0.67-6.18c-0.47-4.23,0.57-8.17,2.63-11.65l84.5-0.06l56.41,159.09l18.09,50.44
				c2.09,5.82,0.8,8.44,3.01,7.23c1.12-0.62,1.03-4.27,2.17-7.6l15.39-44.74c1.04-3.03,0.6-5.88,3.21-8.61
				c1.11-1.16,1.12-3.95,2.25-5.39c0.75-0.95-0.45-2.36-0.15-3.11l2.33-6.01c0.73-1.89,3.31-3.77,2.71-6.04
				c-0.41-1.57,0.45-2.05,0.74-3.1c0.82-2.91,1.5-5.74,3.33-8.37c1.06-1.52,2.01-3.43,1.21-5.04c0.79-0.02,1.09,0.07,1.17-0.25
				c0.08-0.33-0.81-1.45-0.6-1.68c1.39-1.55,1.75-4.18,2.52-6.24c0.04-0.11,3.49-5.7,3.7-9.25c0.35-5.85,3.83-8.85,4.21-11.46
				c0.33-2.26,1.46-4.4,1.85-6.23c0.61-2.91,1.34-5.45,3.24-7.76c1.51-1.84,0.92-4.04,1.21-5.85c0.46-2.81,6.21-12.45,6.35-15.98
				c0.12-2.95,0.81-5.7,2.98-7.92C1189.6,152.27,1189.42,150.62,1189.94,149.6z"/>
			<path class="st40" d="M1200.52,120.06c-0.9-2.02,1.4-6.59,2.31-8.4C1204.31,112.32,1201.19,118.94,1200.52,120.06z"/>
			<path class="st41" d="M1189.94,149.6c-0.38-2.1,0.23-5.08,1.87-6.61C1192.63,145.24,1190.97,147.58,1189.94,149.6z"/>
		</g>
	</g>
	<g>
		<path class="st42" d="M1627.67,100.43c1.14-0.36,1.71-0.54,1.71-0.54l31.01,0.21c3.58,0.51,7.17,0.86,10.78,1.06
			c3.27,0.69,7.02,0.06,10.3,1.44c1.35,0.57,2.1,1.69,4.07,1.57c3.18-0.2,6.17,0.9,9.16,1.7c5.1,1.36,10.02,2.25,14.97,4.1
			c5.98,2.24,12.17,3.42,17.84,6.7c4.09,2.36,8.67,3.51,12.99,5.49c1.47,0.67,2.25,1.67,3.51,2.52l7.67,5.19
			c2.04,1.38,3.5,2.96,6.01,4.21c-0.67,2.2-0.21,4.62-1.18,6.72l-22.34,48.34c-2.66,5.76-5.3,11.18-8.39,16.67
			c-2,1.84-5.98,0.32-7.95-0.81l-9.17-5.3l-15.89-6.17c-1.76-0.68-3.26-2.09-5.33-2.36c-5.7-0.74-11.12-3.18-16.97-3.42
			c-11.13-0.45-22.38-2.06-33.26,0.01l-21.32,4.05c-1.38,0.26-2.33,0.95-3.46,1.55c-5.01,2.68-10.77,3.74-15.55,6.68
			c-10.44,6.41-11.28,5.96-20.27,14.5l-5.68,5.4c-0.53,0.5-8.98,11-9.04,11.12c-3.4,6.57-7.73,12.54-10.51,19.45
			c-3.08,7.65-5.28,15.45-7.24,23.49c-4.48,18.39-2.6,41.28,3.62,59.15c2.6,7.49,6.38,14.29,9.7,21.38c1.2,2.56,3.21,4.68,4.76,7.04
			l3.78,5.77l5.56,5.99c3.28,3.53,8.76,10.51,12.2,11.9c-0.86-0.35,11.67,8.28,15.36,9.72l14.09,5.49c1.54,0.6,2.63,1.53,4.37,1.8
			c17.29,2.73,15.59,4.63,35.88,3.95l12.99-0.44c2.69-0.09,5.02-1.16,7.5-1.3c1.87-0.26,3.72-0.45,5.55-0.56l7.76-1.96
			c0.75-0.19,1.62,0.5,2.62-0.13c-0.1-0.98-0.09-1.28,0.95-0.33c0.93-3,7.47-3.75,9.32-4.36c1.05-0.35,1.74-0.98,2.97-1.05
			c1.37-0.08,1.99-2.26,3.34-2.64c1.8-0.51,3.39-2.15,5.06-2.4c2.31-0.35,3.93-0.73,5.36-2.93c1.72-2.64,6.46-4.55,8.86-2.4
			c0.55,1.52,0.21,4.55,2.98,4.99c0.16,1.77,0.25,2.86,0.91,4.31l27.86,60.56c-0.14,1.94-1.57,4.8-2.91,5.71l-3.78,2.56l-11.45,6.84
			c-7.23,4.31-21.85,11.28-29.96,12.53c-0.19,0.03-10.54,3.86-18.21,5.04l-17.19,2.64c-1.94,0.3-3.62,1.34-5.8,1.35l-45.49,0.1
			c-2.16,0-3.73-0.95-5.64-1.4c-6.02-1.41-11.98-2.36-18.05-3.32c-3.97-0.63-7.19-2.35-10.88-3.65l-17.39-6.14
			c-1.86-0.66-3.34-2.29-5.35-2.97c-3.71-1.26-6.85-3.53-10.26-5.17c-4.46-2.14-8.08-4.77-12.05-7.57l-9.81-6.95
			c-2.64-1.87-5.31-3.44-7.42-5.99c-1.91-2.31-4.83-3.61-6.91-5.82c-5.07-5.4-9.44-9.15-15-15.11l-5.34-5.73l-10.43-14.71
			c-3.5-4.94-6.44-9.78-9.38-15.13l-3.96-7.19c-2.51-4.57-4.49-8.97-6.27-13.9l-6.32-17.52c-1.9-5.27-7.44-32.55-7.45-38.34
			c-0.47-11.68-0.51-23.88-0.06-35.68c0.96-7.74,1.59-15.63,3.63-23.42l5.41-20.66c0.77-2.93,1.76-5.51,2.94-8.27l8.62-20.21
			c0.73-1.72,0.24-4.21,2.3-5.1c1.29-0.56,1.41-1.42,1.6-2.77c0.13-0.93,2.01-1.73,2.03-3.06c0.02-0.94,0.48-2.46,1.38-2.86
			c1.16-1.45,1.98-2.95,2.47-4.51c0.57-0.69,1.23-1.29,1.68-2.07c0.65-0.5,1.09-1.26,1.57-2.38c0.06-0.18-0.06-0.46,0.03-0.62
			c0.86-0.31,1.72-0.86,2.59-1.63c-0.63-0.99,0.57-3.24,1.59-3.3c1.28-0.07,1.7-1.4,1.46-2.67c0.71,0.15,1.25-0.04,1.5-0.33
			c0.2-0.24,0.06-0.93,0.36-1.23c1.63-1.57,2.72-0.81,2.1-4.5c3.48-0.31,4.91-3.81,6.71-5.9c1.75-2.02,4.26-3.19,5.56-6.16
			c0.85-1.93,5.13-2.98,5.37-6.03c-0.13-0.9,0.14-1.42,0.73-0.2c0.99-0.2,0.44-1.27,0.48-1.89c0.5-0.22,1.44,0.48,1.87,0.02
			c0.33-0.36,0.51-1.13,1.01-1.37c1.06-0.51,2.95-0.89,3.34-2.26c0.71-2.52,2.34-3.94,5.01-4.22c1.67-0.18,2.75-3.82,4.38-4.05
			c0.49-0.51,1.15-0.84,1.98-1c0.22-0.36,0.74-1.13,1.17-1.34c1.7,0.07,2.42-1.45,3.47-2.46c1.34-1.29,3.29-1.71,4.06-3.38
			c0.46,0.68,0.8,1.1,1.18,1.11c0.81,0.03,0.2-1.44,0.52-1.64c1.43-0.91,3.13-2.33,4.81-2.78c2.08-0.55,3.96-1.18,4.69-3.49
			c0.73,0.5,1.09,0.97,1.31,0.76l0.99-0.9c1.84-1.68,3.09-2.68,5.39-2.92c1.75-0.18,3.29-1.86,5-2.16c0.75-0.13,1.42,0.2,1.73-0.4
			c0.23-0.44,0.2-1.09,0.58-1.53c0.27,0.03,0.66,1.18,1.15,1.01c0.54-0.19,0.25-1.22,0.59-1.55c2.38-2.27,5.15-1.56,7.8-2.93
			c1.54-0.8,4.26-0.36,5.52-1.96c0.95-1.2,1.67-2.13,3.49-2.19c2.32-0.08,4.64-2.41,6.9-2.16c2.43,0.27,3.43-0.14,5.14-1.01
			c-2.57,1.3,12.97-3.82,12.71-3.8l4.94-0.36C1621.35,101,1624.25,100.41,1627.67,100.43z"/>
		<path class="st43" d="M1454.81,315.69c-0.04,0.09-0.73-0.24-0.71-0.62c0.8-11.85-0.77-23.6,0.65-35.06L1454.81,315.69z"/>
		<path class="st44" d="M1534.44,137.37c-0.18,0.29,0.13,0.98-0.56,1.11c-0.37,0.07-0.94-0.03-1.41-0.12
			c0.14-0.41-0.04-1.37,0.76-1.43C1533.62,136.9,1534.09,137.13,1534.44,137.37z"/>
		<path class="st36" d="M1490.99,182.45c0,0.53-0.7,0.99-1.02,1.41c-0.44,0.58-0.98,1.05-1.57,0.22
			C1488.94,183.1,1489.87,182.46,1490.99,182.45z"/>
	</g>
</g>
</svg>
